<?xml version="1.0" encoding="UTF-8"?>
<svg version="1.1" xmlns="http://www.w3.org/2000/svg" width="198" height="197">
<path d="M0 0 C65.34 0 130.68 0 198 0 C198 65.01 198 130.02 198 197 C132.66 197 67.32 197 0 197 C0 131.99 0 66.98 0 0 Z " fill="#1C8D50" transform="translate(0,0)"/>
<path d="M0 0 C65.34 0 130.68 0 198 0 C198 65.01 198 130.02 198 197 C132.66 197 67.32 197 0 197 C0 131.99 0 66.98 0 0 Z M97.609375 13.3203125 C96.35552002 13.60519531 95.10166504 13.89007813 93.80981445 14.18359375 C92.45648411 14.4971419 91.10321405 14.81095035 89.75 15.125 C88.34666565 15.4469083 86.9432631 15.76851941 85.53979492 16.08984375 C74.09427123 18.71780708 62.66494444 21.41355224 51.25830078 24.20556641 C47.64175882 25.08734578 44.02196331 25.95516407 40.40234375 26.82421875 C37.85140395 27.44466097 35.3006195 28.06574234 32.75 28.6875 C31.55286377 28.97302734 30.35572754 29.25855469 29.12231445 29.55273438 C28.00429443 29.82794922 26.88627441 30.10316406 25.734375 30.38671875 C24.74663086 30.62608154 23.75888672 30.86544434 22.74121094 31.11206055 C19.11120637 32.28790011 15.9641198 33.46500564 13.87547207 36.79038334 C12.86363471 39.34417433 12.74043491 41.25880138 12.72584534 44.0030365 C12.71587021 45.01100784 12.70589508 46.01897919 12.69561768 47.05749512 C12.694953 48.15734741 12.69428833 49.25719971 12.69360352 50.39038086 C12.68528 51.55336197 12.67695648 52.71634308 12.66838074 53.91456604 C12.64425543 57.7646925 12.63550609 61.61464969 12.62890625 65.46484375 C12.6222079 67.46221519 12.61550736 69.45958664 12.60847133 71.45695692 C12.58701 77.7368552 12.57766677 84.01669946 12.57446289 90.29663086 C12.57082604 96.77130932 12.54091758 103.24551421 12.49905831 109.72004789 C12.46435673 115.28280984 12.4489145 120.84541479 12.44821686 126.40828425 C12.44742412 129.72911614 12.43632065 133.0493558 12.41021919 136.37010002 C12.38342081 140.07389703 12.38809695 143.77638078 12.40063477 147.48022461 C12.38580048 148.57805267 12.37096619 149.67588074 12.35568237 150.80697632 C12.38741757 156.8976026 12.38741757 156.8976026 15.31358337 162.11695862 C21.97553031 166.78664449 29.86695179 167.9830361 37.6875 169.625 C49.33531511 172.14098709 60.92293728 174.86493869 72.5 177.6875 C73.29087006 177.87959045 74.08174011 178.07168091 74.89657593 178.26959229 C82.89485591 180.213527 90.8753171 182.16867224 98.78173828 184.46484375 C103.95440178 185.71275024 109.3513189 185.84086067 114 183 C117.84336278 178.33103252 118.55650949 174.63495633 118.390625 168.7578125 C118.38659668 168.07581787 118.38256836 167.39382324 118.37841797 166.69116211 C118.35765342 164.1688303 118.30180857 161.64688517 118.25 159.125 C118.1675 153.47375 118.085 147.8225 118 142 C134.17 142 150.34 142 167 142 C167 113.29 167 84.58 167 55 C150.83 55 134.66 55 118 55 C118.25 38.375 118.25 38.375 118.36035156 33.16162109 C118.37204526 31.78223922 118.38223547 30.40284343 118.390625 29.0234375 C118.4213208 27.96829956 118.4213208 27.96829956 118.45263672 26.8918457 C118.45622351 21.7752884 117.20696745 18.94211213 114 15 C108.53776396 10.79827997 104.02313701 11.85099481 97.609375 13.3203125 Z " fill="#FCFCFC" transform="translate(0,0)"/>
<path d="M0 0 C7.44132216 -0.09060758 14.88233955 -0.16389148 22.32409763 -0.20724869 C25.78015815 -0.22806504 29.23581954 -0.25627153 32.69165039 -0.30175781 C36.67068597 -0.35379891 40.64956366 -0.37299459 44.62890625 -0.390625 C45.86145645 -0.41127014 47.09400665 -0.43191528 48.36390686 -0.45318604 C55.06453952 -0.45493021 59.71506924 -0.33526224 65 4 C66.741109 7.48582413 67.25173729 10.32028129 67.26069641 14.19248962 C67.26778122 15.21721878 67.27486603 16.24194794 67.28216553 17.29772949 C67.27968811 18.41111694 67.27721069 19.52450439 67.2746582 20.67163086 C67.27976913 21.85265884 67.28488007 23.03368683 67.29014587 24.25050354 C67.30165094 27.48196031 67.30411759 30.71325773 67.30158257 33.94472957 C67.30051106 36.64597624 67.30540082 39.34719938 67.310188 42.04844099 C67.3212738 48.4228556 67.32172577 54.79721128 67.31567383 61.17163086 C67.30963357 67.73991389 67.32194834 74.30798273 67.3432439 80.87622923 C67.36087658 86.52310007 67.36685865 92.16990283 67.36360615 97.81680018 C67.36179585 101.18610719 67.36440407 104.55526138 67.37832069 107.92454338 C67.39064903 111.68285529 67.3839145 115.44067072 67.37231445 119.19897461 C67.37995819 120.31033783 67.38760193 121.42170105 67.39547729 122.56674194 C67.35764166 128.10940434 67.22263367 132.26126401 64 137 C59.63946694 140.9351152 57.25493333 142.12609293 51.44873047 142.11352539 C50.28767792 142.11344986 49.12662537 142.11337433 47.9303894 142.11329651 C46.67203278 142.10813522 45.41367615 142.10297394 44.1171875 142.09765625 C42.83264679 142.0962413 41.54810608 142.09482635 40.22463989 142.09336853 C36.80843158 142.08954911 33.39226574 142.07972373 29.97607422 142.06866455 C26.49056585 142.05843807 23.00505041 142.0538135 19.51953125 142.04882812 C12.67964998 142.03863152 5.83988536 142.0190585 -1 142 C-1 131.77 -1 121.54 -1 111 C15.17 111 31.34 111 48 111 C47.67 82.29 47.34 53.58 47 24 C31.49 23.67 15.98 23.34 0 23 C0 15.41 0 7.82 0 0 Z " fill="#E2E2E2" transform="translate(119,31)"/>
<path d="M0 0 C16.17 0 32.34 0 49 0 C49 28.71 49 57.42 49 87 C32.83 87 16.66 87 0 87 C0 98.55 0 110.1 0 122 C-1.32 121.67 -2.64 121.34 -4 121 C-3.99476318 119.91058105 -3.98952637 118.82116211 -3.98413086 117.69873047 C-3.96596977 113.63965686 -3.95452749 109.58058682 -3.94506836 105.52148438 C-3.94005349 103.76789749 -3.93323998 102.01431476 -3.92456055 100.26074219 C-3.91237 97.7337135 -3.90674312 95.20674032 -3.90234375 92.6796875 C-3.89718246 91.90132538 -3.89202118 91.12296326 -3.88670349 90.3210144 C-3.88636298 86.9834859 -4.0087139 83.94858462 -4.56860352 80.64501953 C-5 78 -5 78 -4 75 C-3.01 75 -2.02 75 -1 75 C-1.99 74.67 -2.98 74.34 -4 74 C-4 67.73 -4 61.46 -4 55 C-3.01 55 -2.02 55 -1 55 C-1.16371094 54.32582031 -1.32742187 53.65164062 -1.49609375 52.95703125 C-2.0875358 49.48632094 -2.09539046 46.20677876 -2.0625 42.6875 C-2.05347656 41.43324219 -2.04445313 40.17898437 -2.03515625 38.88671875 C-2.02355469 37.93410156 -2.01195313 36.98148438 -2 36 C-2.66 36 -3.32 36 -4 36 C-4 34.02 -4 32.04 -4 30 C-3.34 30 -2.68 30 -2 30 C-1.97494385 29.30438965 -1.9498877 28.6087793 -1.92407227 27.89208984 C-1.80754026 24.71956545 -1.68507432 21.54729645 -1.5625 18.375 C-1.50352539 16.73337891 -1.50352539 16.73337891 -1.44335938 15.05859375 C-1.40146484 13.99511719 -1.35957031 12.93164062 -1.31640625 11.8359375 C-1.27974854 10.86188965 -1.24309082 9.8878418 -1.20532227 8.88427734 C-0.99311378 5.90326533 -0.49131553 2.94789317 0 0 Z " fill="#474847" transform="translate(118,55)"/>
<path d="M0 0 C4.29812737 1.23830807 7.05655595 4.47540615 10.1015625 7.60546875 C10.92785156 8.42015625 11.75414063 9.23484375 12.60546875 10.07421875 C14.78922343 12.23405123 16.95228193 14.41141151 19.1015625 16.60546875 C22.01502843 15.29239626 24.0466604 13.89365287 26.265625 11.6015625 C26.83023438 11.02599609 27.39484375 10.45042969 27.9765625 9.85742188 C28.5540625 9.25865234 29.1315625 8.65988281 29.7265625 8.04296875 C30.88316401 6.85197491 32.04192028 5.6630687 33.203125 4.4765625 C33.71182129 3.9498999 34.22051758 3.4232373 34.74462891 2.88061523 C37.50971418 0.28219127 40.33630725 0.14785165 44.05859375 0.1953125 C46.1015625 0.60546875 46.1015625 0.60546875 49.1015625 3.23046875 C52.12647353 8.33500612 52.12647353 8.33500612 51.1015625 12.60546875 C49.07887105 15.58153069 46.63420691 18.05947121 44.1015625 20.60546875 C43.21339844 21.5078125 42.32523438 22.41015625 41.41015625 23.33984375 C38.98932288 25.77789499 36.55308953 28.19833557 34.1015625 30.60546875 C38.45863871 35.87982416 43.13165968 40.69015254 48.02734375 45.46875 C50.52972946 48.04653716 51.05518863 48.89440278 51.2890625 52.48046875 C51.10478544 55.55175304 50.8073668 57.09165189 49.1015625 59.60546875 C45.590577 61.94612575 43.67262163 62.26958144 39.53955078 62.17578125 C34.6781942 61.03857627 31.77383266 57.19494192 28.5390625 53.60546875 C27.81654297 52.84234375 27.09402344 52.07921875 26.34960938 51.29296875 C24.57810909 49.41588236 22.8310224 47.52121737 21.1015625 45.60546875 C18.06187959 46.94738858 16.15705538 48.37884423 13.96484375 50.86328125 C13.38669922 51.48847656 12.80855469 52.11367187 12.21289062 52.7578125 C11.01857579 54.06753887 9.83862207 55.39051378 8.67382812 56.7265625 C4.33382098 61.34888543 4.33382098 61.34888543 0.72607422 62.10009766 C-3.19436595 62.18455248 -5.19877499 62.13021564 -8.3984375 59.73046875 C-10.93438484 56.13787669 -11.55443426 54.03344685 -10.8984375 49.60546875 C-8.26177192 45.67939931 -4.81475303 42.47318096 -1.39453125 39.234375 C-0.57082031 38.44933594 0.25289062 37.66429687 1.1015625 36.85546875 C2.2771875 35.78039062 2.2771875 35.78039062 3.4765625 34.68359375 C5.3459149 32.78941042 5.3459149 32.78941042 4.8984375 30.68701172 C3.96253466 28.24230963 2.85863902 27.03246694 0.9765625 25.22265625 C0.35265625 24.61292969 -0.27125 24.00320312 -0.9140625 23.375 C-1.56890625 22.74980469 -2.22375 22.12460938 -2.8984375 21.48046875 C-4.19218603 20.23001495 -5.48395256 18.97750627 -6.7734375 17.72265625 C-7.34835938 17.17206543 -7.92328125 16.62147461 -8.515625 16.05419922 C-10.70268625 13.76288187 -10.9084217 12.51727498 -11.2734375 9.29296875 C-10.8984375 5.60546875 -10.8984375 5.60546875 -8.8984375 2.66796875 C-5.82083056 0.55211398 -3.76411887 -0.26080973 0 0 Z " fill="#F9FBFB" transform="translate(41.8984375,67.39453125)"/>
<path d="M0 0 C1.32 0.66 2.64 1.32 4 2 C5.80657642 7.72082532 5 14.16448427 5 20 C17.375 19.505 17.375 19.505 30 19 C30.33 13.39 30.66 7.78 31 2 C32.65 1.67 34.3 1.34 36 1 C37.03336827 17.01720818 37.07868357 32.94855141 37 49 C20.83 49 4.66 49 -12 49 C-12 47.35 -12 45.7 -12 44 C-8.04 44 -4.08 44 0 44 C0 37.73 0 31.46 0 25 C-3.96 25 -7.92 25 -12 25 C-12 23.02 -12 21.04 -12 19 C-8.04 19 -4.08 19 0 19 C0 12.73 0 6.46 0 0 Z " fill="#4C4C4C" transform="translate(130,86)"/>
<path d="M0 0 C4.29 0 8.58 0 13 0 C13 6.27 13 12.54 13 19 C9.04 19 5.08 19 1 19 C1 20.98 1 22.96 1 25 C4.96 25 8.92 25 13 25 C13 31.27 13 37.54 13 44 C9.04 44 5.08 44 1 44 C1 45.98 1 47.96 1 50 C4.96 50 8.92 50 13 50 C13 56.27 13 62.54 13 69 C9.04 69 5.08 69 1 69 C1 70.65 1 72.3 1 74 C17.17 74 33.34 74 50 74 C50 76.31 50 78.62 50 81 C33.83 81 17.66 81 1 81 C1 92.55 1 104.1 1 116 C-0.32 115.67 -1.64 115.34 -3 115 C-2.99476318 113.91058105 -2.98952637 112.82116211 -2.98413086 111.69873047 C-2.96596977 107.63965686 -2.95452749 103.58058682 -2.94506836 99.52148438 C-2.94005349 97.76789749 -2.93323998 96.01431476 -2.92456055 94.26074219 C-2.91237 91.7337135 -2.90674312 89.20674032 -2.90234375 86.6796875 C-2.89718246 85.90132538 -2.89202118 85.12296326 -2.88670349 84.3210144 C-2.88636298 80.9834859 -3.0087139 77.94858462 -3.56860352 74.64501953 C-4 72 -4 72 -3 69 C-2.01 69 -1.02 69 0 69 C-0.99 68.67 -1.98 68.34 -3 68 C-3 61.73 -3 55.46 -3 49 C-2.01 49 -1.02 49 0 49 C-0.16371094 48.32582031 -0.32742187 47.65164062 -0.49609375 46.95703125 C-1.0875358 43.48632094 -1.09539046 40.20677876 -1.0625 36.6875 C-1.05347656 35.43324219 -1.04445313 34.17898437 -1.03515625 32.88671875 C-1.02355469 31.93410156 -1.01195313 30.98148438 -1 30 C-1.66 30 -2.32 30 -3 30 C-3 28.02 -3 26.04 -3 24 C-2.34 24 -1.68 24 -1 24 C-0.67 16.08 -0.34 8.16 0 0 Z " fill="#428C65" transform="translate(117,61)"/>
<path d="M0 0 C0.33 0 0.66 0 1 0 C1.00331015 0.59929951 1.00662029 1.19859901 1.01003075 1.81605911 C1.09124201 16.39661016 1.18332832 30.97706445 1.28752708 45.55746841 C1.3376544 52.60843994 1.38409727 59.65939982 1.421875 66.71044922 C1.45832692 73.51211217 1.50503501 80.31364258 1.55806351 87.11519623 C1.57662958 89.71316059 1.5917293 92.31115206 1.60334396 94.9091568 C1.62016831 98.54145819 1.64919473 102.17346876 1.68115234 105.80566406 C1.68331253 106.88531937 1.68547272 107.96497467 1.68769836 109.0773468 C1.69886185 110.06730148 1.71002533 111.05725616 1.7215271 112.07720947 C1.72705786 112.93632053 1.73258862 113.79543159 1.73828697 114.68057632 C2.02873889 117.25469755 2.55965524 118.84879775 4 121 C6.45521957 121.87760798 8.65228313 122.48743921 11.18359375 123.01171875 C12.64709611 123.3449987 14.11047235 123.6788329 15.57373047 124.01318359 C16.68708771 124.25896149 16.68708771 124.25896149 17.82293701 124.50970459 C21.05678417 125.2379979 24.26282092 126.06755433 27.47265625 126.89453125 C42.62809725 130.73037515 57.80298723 134.39466583 73.07446289 137.74145508 C74.28996826 138.00982178 75.50547363 138.27818848 76.7578125 138.5546875 C78.35326904 138.90249268 78.35326904 138.90249268 79.98095703 139.25732422 C83.05430923 140.01335991 86.00199488 140.99070983 89 142 C93.24936877 142.45336846 97.99636244 142.53080259 102 141 C103.37466625 138.52363988 103.37466625 138.52363988 104 136 C104.33 136 104.66 136 105 136 C105.34751969 138.91916538 105.53280018 141.13195476 103.95703125 143.69921875 C102.15362765 145.88339965 100.55587616 147.72206192 98 149 C87.96716373 149.88007336 78.23761892 146.69194904 68.63647461 144.08764648 C59.74052837 141.67836399 50.81454075 139.54744856 41.8125 137.5625 C39.10351552 136.95600849 36.39546095 136.34541851 33.6875 135.734375 C33.02768631 135.58555374 32.36787262 135.43673248 31.68806458 135.28340149 C29.79202456 134.85568295 27.89601182 134.42784351 26 134 C24.91074219 133.75572266 23.82148437 133.51144531 22.69921875 133.25976562 C19.8997463 132.62616259 17.10564252 131.97335979 14.3125 131.3125 C13.51239502 131.13468994 12.71229004 130.95687988 11.88793945 130.77368164 C7.50136173 129.71201461 4.71859102 128.67109006 2 125 C0.34799984 121.47898802 -0.24862908 118.7203842 -0.24050903 114.84306335 C-0.24325836 113.82649155 -0.24600769 112.80991974 -0.24884033 111.76254272 C-0.2380545 110.10637436 -0.2380545 110.10637436 -0.22705078 108.41674805 C-0.22734283 107.24558945 -0.22763489 106.07443085 -0.22793579 104.86778259 C-0.22654312 100.99901913 -0.21098457 97.13044855 -0.1953125 93.26171875 C-0.19158215 90.57843194 -0.18863689 87.8951558 -0.18673706 85.21186829 C-0.18052658 78.87254346 -0.16412165 72.53328779 -0.14403808 66.19399339 C-0.1216656 58.97516118 -0.11068226 51.75632562 -0.10064721 44.53746736 C-0.07975502 29.69160753 -0.04458747 14.84580833 0 0 Z " fill="#CACDCC" transform="translate(12,42)"/>
<path d="M0 0 C3.57431417 5.20247151 4.30157779 8.07419812 4.2578125 14.29296875 C4.25639755 15.04480438 4.2549826 15.79664001 4.25352478 16.57125854 C4.2479209 18.97593135 4.23536782 21.38051152 4.22265625 23.78515625 C4.21764175 25.41406116 4.21307875 27.04296752 4.20898438 28.671875 C4.19795022 32.66800452 4.18068304 36.66406467 4.16015625 40.66015625 C3.83015625 40.66015625 3.50015625 40.66015625 3.16015625 40.66015625 C3.15081055 39.74202148 3.14146484 38.82388672 3.13183594 37.87792969 C3.08775694 34.46310347 3.02611893 31.04952517 2.95263672 27.63525391 C2.92445537 26.15913429 2.90322659 24.68286456 2.88916016 23.20654297 C2.86768927 21.08092568 2.82102582 18.95710746 2.76953125 16.83203125 C2.73811035 14.91535645 2.73811035 14.91535645 2.70605469 12.95996094 C2.07221956 9.12860334 1.24681239 7.9436448 -1.83984375 5.66015625 C-7.92525765 4.00049791 -12.63247793 5.09079655 -18.66015625 6.63671875 C-22.01114353 7.48762834 -25.37957703 8.19225035 -28.76953125 8.87109375 C-29.82849609 9.08362793 -30.88746094 9.29616211 -31.97851562 9.51513672 C-34.10126595 9.93821354 -36.2249436 10.35666945 -38.34960938 10.77001953 C-42.6493752 11.63875057 -46.73383276 12.4651933 -50.7421875 14.28125 C-53.72350621 15.60836917 -55.80426482 16.06380816 -59.02734375 16.22265625 C-62.48937078 16.39391586 -62.48937078 16.39391586 -65.68017578 17.60766602 C-68.03525767 18.75538906 -70.16294186 19.28112801 -72.7265625 19.80859375 C-73.66564453 20.0096875 -74.60472656 20.21078125 -75.57226562 20.41796875 C-77.52204261 20.8251925 -79.47255459 21.22891491 -81.42382812 21.62890625 C-92.55048377 23.76701494 -92.55048377 23.76701494 -100.83984375 30.66015625 C-101.16318733 26.02556488 -100.9293688 23.23241959 -97.83984375 19.66015625 C-91.01283256 16.69505198 -83.86707238 15.04343736 -76.65234375 13.28515625 C-74.78122925 12.82399414 -74.78122925 12.82399414 -72.87231445 12.35351562 C-69.19622384 11.44987978 -65.51839621 10.55371083 -61.83984375 9.66015625 C-60.89850586 9.43038086 -59.95716797 9.20060547 -58.98730469 8.96386719 C-53.95890008 7.73887651 -48.92383179 6.54596843 -43.8828125 5.37402344 C-40.92609277 4.68038989 -37.97311419 3.97200465 -35.02043152 3.26141357 C-32.22124982 2.59114748 -29.41924275 1.93324707 -26.61660767 1.27758789 C-25.23965222 0.95304468 -23.86377515 0.6238865 -22.48910522 0.28979492 C-5.31970899 -3.87401313 -5.31970899 -3.87401313 0 0 Z " fill="#41986A" transform="translate(113.83984375,14.33984375)"/>
<path d="M0 0 C8.25 0 16.5 0 25 0 C25 6.27 25 12.54 25 19 C16.75 19 8.5 19 0 19 C0 12.73 0 6.46 0 0 Z " fill="#E0E0E0" transform="translate(136,86)"/>
<path d="M0 0 C8.25 0 16.5 0 25 0 C25 5.94 25 11.88 25 18 C16.75 18 8.5 18 0 18 C0 12.06 0 6.12 0 0 Z " fill="#E4E4E4" transform="translate(136,111)"/>
<path d="M0 0 C8.25 0 16.5 0 25 0 C25 5.94 25 11.88 25 18 C16.75 18 8.5 18 0 18 C0 12.06 0 6.12 0 0 Z " fill="#E4E4E4" transform="translate(136,62)"/>
<path d="M0 0 C0.66 0 1.32 0 2 0 C1.76001446 6.11963135 1.76001446 6.11963135 -0.33203125 8.54296875 C-4.64191705 12.11881074 -7.06700464 13.12539609 -12.55126953 13.11352539 C-13.71232208 13.11344986 -14.87337463 13.11337433 -16.0696106 13.11329651 C-17.32796722 13.10813522 -18.58632385 13.10297394 -19.8828125 13.09765625 C-21.16735321 13.0962413 -22.45189392 13.09482635 -23.77536011 13.09336853 C-27.19156842 13.08954911 -30.60773426 13.07972373 -34.02392578 13.06866455 C-37.50943426 13.05843807 -40.9949496 13.05386826 -44.48046875 13.04882812 C-51.32032995 13.03810096 -58.16016294 13.02103142 -65 13 C-65 11.02 -65 9.04 -65 7 C-63.93004288 6.99453156 -63.93004288 6.99453156 -62.83847046 6.98895264 C-56.1000794 6.95100875 -49.36214325 6.8940842 -42.62409019 6.81609726 C-39.16034489 6.77667005 -35.69685196 6.74445879 -32.23291016 6.72900391 C-28.24609063 6.71089447 -24.25997044 6.66092188 -20.2734375 6.609375 C-19.03572601 6.60814636 -17.79801453 6.60691772 -16.52279663 6.60565186 C-7.95803986 6.48123253 -7.95803986 6.48123253 -1 2 C-0.67 1.34 -0.34 0.68 0 0 Z " fill="#CBCCCB" transform="translate(183,160)"/>
<path d="M0 0 C3.03968291 1.34191983 4.94450712 2.77337548 7.13671875 5.2578125 C7.71486328 5.88300781 8.29300781 6.50820312 8.88867188 7.15234375 C10.08298671 8.46207012 11.26294043 9.78504503 12.42773438 11.12109375 C15.81448278 14.75843957 15.81448278 14.75843957 20.35791016 16.46386719 C23.89129136 16.50536063 26.6366392 16.12112027 30 15 C30.33 14.01 30.66 13.02 31 12 C31.6875 13.6875 31.6875 13.6875 32 16 C30.6007781 18.79844381 29.21208617 20.78791383 27 23 C24.8359375 23.1953125 24.8359375 23.1953125 22.375 23.125 C21.55773437 23.10695312 20.74046875 23.08890625 19.8984375 23.0703125 C19.27195313 23.04710937 18.64546875 23.02390625 18 23 C18 22.34 18 21.68 18 21 C17.4225 20.7525 16.845 20.505 16.25 20.25 C13.67060021 18.81700012 11.93878408 17.21575324 10 15 C10 14.34 10 13.68 10 13 C9.4225 12.938125 8.845 12.87625 8.25 12.8125 C5.13207906 11.6865841 3.98619837 9.58205789 2 7 C-0.25855409 6.77132904 -0.25855409 6.77132904 -2.1875 9.0625 C-3.12909802 10.03772652 -4.06606993 11.01742774 -5 12 C-6.22352637 13.27626458 -7.45285473 14.5469886 -8.6875 15.8125 C-9.26886719 16.41707031 -9.85023437 17.02164063 -10.44921875 17.64453125 C-12 19 -12 19 -14 19 C-14 19.66 -14 20.32 -14 21 C-16.8331493 23.24985386 -18.41355206 24.01196833 -22.0625 23.9375 C-25.46103845 22.85286007 -26.91493836 21.88700843 -29 19 C-29.25 16.25 -29.25 16.25 -29 14 C-28.42693115 14.31710938 -27.8538623 14.63421875 -27.26342773 14.9609375 C-23.44698803 16.71293484 -20.0910868 16.97101999 -16 16 C-12.67819976 13.75099339 -10.11395914 10.96994154 -7.4375 8 C-6.3537207 6.8553125 -6.3537207 6.8553125 -5.24804688 5.6875 C-3.47654659 3.81041361 -1.7294599 1.91574862 0 0 Z " fill="#206F45" transform="translate(61,112)"/>
<path d="M0 0 C16.17 0 32.34 0 49 0 C49 1.98 49 3.96 49 6 C32.83 6 16.66 6 0 6 C0 4.02 0 2.04 0 0 Z " fill="#B6B7B6" transform="translate(118,136)"/>
<path d="M0 0 C0.33 0 0.66 0 1 0 C1.00331015 0.59929951 1.00662029 1.19859901 1.01003075 1.81605911 C1.09124201 16.39661016 1.18332832 30.97706445 1.28752708 45.55746841 C1.3376544 52.60843994 1.38409727 59.65939982 1.421875 66.71044922 C1.45832692 73.51211217 1.50503501 80.31364258 1.55806351 87.11519623 C1.57662958 89.71316059 1.5917293 92.31115206 1.60334396 94.9091568 C1.62016831 98.54145819 1.64919473 102.17346876 1.68115234 105.80566406 C1.68331253 106.88531937 1.68547272 107.96497467 1.68769836 109.0773468 C1.69886185 110.06730148 1.71002533 111.05725616 1.7215271 112.07720947 C1.72705786 112.93632053 1.73258862 113.79543159 1.73828697 114.68057632 C2.02991575 117.26512742 2.53651686 118.84957987 4 121 C6.6582745 121.90281021 9.08347646 122.56607265 11.8125 123.125 C13.23639595 123.43683966 14.65959596 123.75187648 16.08203125 124.0703125 C17.09064209 124.29509277 17.09064209 124.29509277 18.11962891 124.52441406 C20.5138465 125.12996273 22.74523179 125.99886519 25 127 C25 127.66 25 128.32 25 129 C26.65 129.66 28.3 130.32 30 131 C30 131.99 30 132.98 30 134 C24.70557031 133.3075977 19.5225208 132.35392257 14.3125 131.1875 C13.56677734 131.03474609 12.82105469 130.88199219 12.05273438 130.72460938 C7.62057134 129.72430853 4.80849355 128.80615793 2 125 C0.34826585 121.47881188 -0.24862929 118.72048631 -0.24050903 114.84306335 C-0.24325836 113.82649155 -0.24600769 112.80991974 -0.24884033 111.76254272 C-0.2380545 110.10637436 -0.2380545 110.10637436 -0.22705078 108.41674805 C-0.22734283 107.24558945 -0.22763489 106.07443085 -0.22793579 104.86778259 C-0.22654312 100.99901913 -0.21098457 97.13044855 -0.1953125 93.26171875 C-0.19158215 90.57843194 -0.18863689 87.8951558 -0.18673706 85.21186829 C-0.18052658 78.87254346 -0.16412165 72.53328779 -0.14403808 66.19399339 C-0.1216656 58.97516118 -0.11068226 51.75632562 -0.10064721 44.53746736 C-0.07975502 29.69160753 -0.04458747 14.84580833 0 0 Z " fill="#A3C4B3" transform="translate(12,42)"/>
<path d="M0 0 C1.65 0 3.3 0 5 0 C5 0.66 5 1.32 5 2 C5.99 2.33 6.98 2.66 8 3 C7.21753906 3.20496094 6.43507812 3.40992188 5.62890625 3.62109375 C4.61699219 3.89050781 3.60507813 4.15992188 2.5625 4.4375 C1.55316406 4.70433594 0.54382813 4.97117187 -0.49609375 5.24609375 C-2.91752001 5.75978077 -2.91752001 5.75978077 -4 7 C-6.48222341 7.28484531 -8.96468855 7.44806553 -11.45703125 7.62109375 C-13.96230727 7.8554196 -13.96230727 7.8554196 -15.85351562 8.9519043 C-18.20293729 10.0990912 -20.32821703 10.62202498 -22.88671875 11.1484375 C-24.2953418 11.45007813 -24.2953418 11.45007813 -25.73242188 11.7578125 C-27.68219886 12.16503625 -29.63271084 12.56875866 -31.58398438 12.96875 C-42.71064002 15.10685869 -42.71064002 15.10685869 -51 22 C-51.32334358 17.36540863 -51.08952505 14.57226334 -48 11 C-45.2508447 9.65237485 -42.92495796 8.82304012 -40 8 C-38.74574219 7.63519531 -37.49148437 7.27039063 -36.19921875 6.89453125 C-34.80035046 6.50983838 -33.40059454 6.12835966 -32 5.75 C-31.00383667 5.46854126 -31.00383667 5.46854126 -29.98754883 5.18139648 C-24.94719436 3.88926778 -21.13541227 4.25207329 -16 5 C-13.34612692 4.76582214 -13.34612692 4.76582214 -11.0625 4.125 C-10.31097656 3.94195313 -9.55945312 3.75890625 -8.78515625 3.5703125 C-6.99633542 3.14912879 -6.99633542 3.14912879 -6 2 C-4.00041636 1.95919217 -1.99954746 1.95745644 0 2 C0 1.34 0 0.68 0 0 Z " fill="#309960" transform="translate(64,23)"/>
<path d="M0 0 C3.96 0 7.92 0 12 0 C12 6.27 12 12.54 12 19 C8.04 19 4.08 19 0 19 C0 12.73 0 6.46 0 0 Z " fill="#E1E2E1" transform="translate(118,86)"/>
<path d="M0 0 C3.96 0 7.92 0 12 0 C12 5.94 12 11.88 12 18 C8.04 18 4.08 18 0 18 C0 12.06 0 6.12 0 0 Z " fill="#E4E6E4" transform="translate(118,111)"/>
<path d="M0 0 C3.96 0 7.92 0 12 0 C12 5.94 12 11.88 12 18 C8.04 18 4.08 18 0 18 C0 12.06 0 6.12 0 0 Z " fill="#E4E6E4" transform="translate(118,62)"/>
<path d="M0 0 C0.66 0.33 1.32 0.66 2 1 C2 9.58 2 18.16 2 27 C-14.17 27 -30.34 27 -47 27 C-47 25.35 -47 23.7 -47 22 C-43.37 22 -39.74 22 -36 22 C-36 22.33 -36 22.66 -36 23 C-39.3 23 -42.6 23 -46 23 C-46 23.99 -46 24.98 -46 26 C-30.49 26 -14.98 26 1 26 C1 24.35 1 22.7 1 21 C0.01 21 -0.98 21 -2 21 C-2.33 21.66 -2.66 22.32 -3 23 C-5.25001099 20.74998901 -4.27948195 15.64505121 -4.3125 12.625 C-4.34150391 11.7484375 -4.37050781 10.871875 -4.40039062 9.96875 C-4.46484423 3.48372572 -4.46484423 3.48372572 -1.98046875 0.8984375 C-1.32691406 0.60195312 -0.67335937 0.30546875 0 0 Z M-29 22 C-20.75 22 -12.5 22 -4 22 C-4 22.33 -4 22.66 -4 23 C-12.25 23 -20.5 23 -29 23 C-29 22.67 -29 22.34 -29 22 Z " fill="#444444" transform="translate(165,108)"/>
<path d="M0 0 C9.39322942 1.54951603 18.62160789 3.72684378 27.875 5.9375 C30.08533799 6.46276489 32.29586816 6.98721545 34.50640869 7.5116272 C35.94313825 7.85256146 37.37978527 8.19384371 38.81634521 8.53549194 C45.20410694 10.05341359 51.60006664 11.53419082 58 13 C58 13.33 58 13.66 58 14 C53.05 13.67 48.1 13.34 43 13 C43 12.34 43 11.68 43 11 C42.43152344 11.01160156 41.86304688 11.02320313 41.27734375 11.03515625 C36.39329516 11.09223194 31.81496035 10.81956772 27 10 C27 10.66 27 11.32 27 12 C19.55444468 11.01701938 12.23972193 10.02712214 5 8 C5 7.34 5 6.68 5 6 C4.34 5.67 3.68 5.34 3 5 C1.375 3.5625 1.375 3.5625 0 2 C0 1.34 0 0.68 0 0 Z " fill="#BDCDC3" transform="translate(37,169)"/>
<path d="M0 0 C16.17 0 32.34 0 49 0 C48.67 0.66 48.34 1.32 48 2 C47.95977609 4.3329866 47.95679753 6.66706666 48 9 C47.29786377 8.84152588 46.59572754 8.68305176 45.87231445 8.51977539 C42.89552459 7.98109408 40.06516197 7.79208274 37.04296875 7.68359375 C35.93115234 7.64169922 34.81933594 7.59980469 33.67382812 7.55664062 C32.52333984 7.51732422 31.37285156 7.47800781 30.1875 7.4375 C29.01767578 7.39431641 27.84785156 7.35113281 26.64257812 7.30664062 C23.76182969 7.20081721 20.88099877 7.09873175 18 7 C17.67 5.68 17.34 4.36 17 3 C16.01 3 15.02 3 14 3 C14 2.34 14 1.68 14 1 C9.38 1 4.76 1 0 1 C0 0.67 0 0.34 0 0 Z " fill="#606060" transform="translate(118,55)"/>
<path d="M0 0 C1.32 0.66 2.64 1.32 4 2 C3.1028125 2.2784375 3.1028125 2.2784375 2.1875 2.5625 C-1.01643707 4.66794436 -2.00109256 7.42589769 -3 11 C-3.4355731 14.84637488 -3.43756641 18.66684415 -3.43237305 22.53491211 C-3.4425647 23.67710205 -3.45275635 24.81929199 -3.46325684 25.99609375 C-3.49335572 29.75656052 -3.50264837 33.51677241 -3.51171875 37.27734375 C-3.52856767 39.89051661 -3.54671819 42.50368137 -3.56611633 45.11683655 C-3.60969704 51.28249646 -3.63829558 57.4481301 -3.66143972 63.61389691 C-3.68853678 70.63697809 -3.73244537 77.65992318 -3.77772844 84.68290699 C-3.87045379 99.12185811 -3.94218981 113.56086738 -4 128 C-5.78177591 124.92452741 -6.25336788 122.69521865 -6.26742554 119.1555481 C-6.28022049 117.69624374 -6.28022049 117.69624374 -6.29327393 116.2074585 C-6.29236755 115.1465802 -6.29146118 114.0857019 -6.29052734 112.99267578 C-6.29724457 111.87031525 -6.30396179 110.74795471 -6.31088257 109.59158325 C-6.32990244 105.87611481 -6.33378878 102.16082661 -6.3359375 98.4453125 C-6.34236251 95.86465378 -6.34909064 93.2839958 -6.35610962 90.70333862 C-6.36809229 85.29130047 -6.371875 79.87933395 -6.37060547 74.46728516 C-6.36940427 68.21876721 -6.39050301 61.9705948 -6.4220928 55.72216427 C-6.45143229 49.70361489 -6.45858063 43.68525261 -6.45738602 37.66662216 C-6.45974727 35.1093492 -6.46860013 32.55207372 -6.48405075 29.99484634 C-6.50363674 26.41830998 -6.49790084 22.84266385 -6.48583984 19.26611328 C-6.49707886 18.20928345 -6.50831787 17.15245361 -6.51989746 16.06359863 C-6.45682929 8.70718541 -5.24846017 5.24846017 0 0 Z " fill="#EDFEFA" transform="translate(16,31)"/>
<path d="M0 0 C8.25 0 16.5 0 25 0 C25 1.98 25 3.96 25 6 C16.75 6 8.5 6 0 6 C0 4.02 0 2.04 0 0 Z " fill="#B3B3B3" transform="translate(136,111)"/>
<path d="M0 0 C8.25 0 16.5 0 25 0 C25 1.98 25 3.96 25 6 C16.75 6 8.5 6 0 6 C0 4.02 0 2.04 0 0 Z " fill="#B1B1B1" transform="translate(136,86)"/>
<path d="M0 0 C8.25 0 16.5 0 25 0 C25 1.98 25 3.96 25 6 C16.75 6 8.5 6 0 6 C0 4.02 0 2.04 0 0 Z " fill="#B7B7B7" transform="translate(136,62)"/>
<path d="M0 0 C10.66666667 0 21.33333333 0 32 0 C32 1.65 32 3.3 32 5 C21.44 5 10.88 5 0 5 C0 3.35 0 1.7 0 0 Z M2 1 C2 1.33 2 1.66 2 2 C10.25 2 18.5 2 27 2 C27 1.67 27 1.34 27 1 C18.75 1 10.5 1 2 1 Z " fill="#5C5C5C" transform="translate(134,129)"/>
<path d="M0 0 C0 0.66 0 1.32 0 2 C1.32 2.33 2.64 2.66 4 3 C0.32000103 4.41538422 -3.32649141 5.79361591 -7.09765625 6.94921875 C-8.15855469 7.27535156 -9.21945313 7.60148437 -10.3125 7.9375 C-11.31925781 8.23527344 -12.32601563 8.53304687 -13.36328125 8.83984375 C-16.2846118 10.12522919 -17.35543775 11.31144942 -19 14 C-19.32334358 9.36540863 -19.08952505 6.57226334 -16 3 C-13.41789922 1.67879769 -10.78565206 0.79131767 -8 0 C-6.95392578 -0.29970703 -6.95392578 -0.29970703 -5.88671875 -0.60546875 C-3.63279204 -1.07678676 -2.16996198 -0.69748778 0 0 Z " fill="#359562" transform="translate(32,31)"/>
<path d="M0 0 C4.64080887 2.09691569 7.73327953 5.32828506 11.3125 8.875 C12.29959961 9.81279297 12.29959961 9.81279297 13.30664062 10.76953125 C13.92345703 11.37925781 14.54027344 11.98898438 15.17578125 12.6171875 C15.74208252 13.17003418 16.30838379 13.72288086 16.8918457 14.29248047 C18 16 18 16 17.67651367 18.21142578 C17.45326416 18.80165527 17.23001465 19.39188477 17 20 C13.11137013 18.73882275 11.10624401 17.54735833 9 14 C9 13.34 9 12.68 9 12 C8.1028125 11.8453125 8.1028125 11.8453125 7.1875 11.6875 C4.49921543 10.84261056 3.63870325 10.30908185 2 8 C1.15642064 5.3487506 0.58147461 2.72845777 0 0 Z " fill="#257047" transform="translate(30,81)"/>
<path d="M0 0 C1.32830085 3.98490254 0.81984985 5.21471231 -1 9 C-3.50240255 11.54090105 -6.23993443 13.74721921 -9 16 C-10.35010281 17.31635024 -11.69414946 18.63973902 -13 20 C-14.32 19.34 -15.64 18.68 -17 18 C-11.72898586 11.58930713 -5.90871848 5.81409488 0 0 Z " fill="#286F49" transform="translate(92,81)"/>
<path d="M0 0 C2.70583756 0.25560029 5.37210774 0.56759978 8.0625 0.9375 C9.20041992 1.08735352 9.20041992 1.08735352 10.36132812 1.24023438 C12.24154246 1.48856457 14.12086128 1.74365751 16 2 C16 2.66 16 3.32 16 4 C18.64 4 21.28 4 24 4 C24 5.32 24 6.64 24 8 C15.95905755 7.462702 7.67967897 6.49936701 0 4 C-0.33 3.01 -0.66 2.02 -1 1 C-0.67 0.67 -0.34 0.34 0 0 Z " fill="#CFC8CB" transform="translate(64,178)"/>
<path d="M0 0 C0.66 0.33 1.32 0.66 2 1 C0.71937515 2.7074998 -0.61767557 4.37373596 -2 6 C-2.66 6 -3.32 6 -4 6 C-5.25099616 8.25179309 -6.0147711 10.07754828 -6.5 12.625 C-7 15 -7 15 -9 17 C-9 16.34 -9 15.68 -9 15 C-13.455 16.485 -13.455 16.485 -18 18 C-19.32 16.68 -20.64 15.36 -22 14 C-21.67 13.01 -21.34 12.02 -21 11 C-19.68 12.32 -18.36 13.64 -17 15 C-14.06769807 13.67879172 -12.01335101 12.25361803 -9.765625 9.9609375 C-9.19199219 9.38085938 -8.61835937 8.80078125 -8.02734375 8.203125 C-7.14755859 7.29820313 -7.14755859 7.29820313 -6.25 6.375 C-5.64800781 5.76398438 -5.04601562 5.15296875 -4.42578125 4.5234375 C-2.94594695 3.02011376 -1.47235324 1.51065144 0 0 Z " fill="#EAFBF2" transform="translate(78,69)"/>
<path d="M0 0 C2.61513337 2.12479586 3.86113839 3.44455357 4.6875 6.75 C3.63227732 11.73832538 0.52499054 14.45524315 -3 18 C-3.74121094 18.75539063 -4.48242188 19.51078125 -5.24609375 20.2890625 C-7.14895343 22.20888172 -9.06620808 24.11141361 -11 26 C-11.66 25.67 -12.32 25.34 -13 25 C-12.25 23.0625 -12.25 23.0625 -11 21 C-8.875 20.25 -8.875 20.25 -7 20 C-7 19.01 -7 18.02 -7 17 C-5.625 15.3125 -5.625 15.3125 -4 14 C-3.34 14 -2.68 14 -2 14 C-2 13.34 -2 12.68 -2 12 C-1.46375 11.62875 -0.9275 11.2575 -0.375 10.875 C1.24863242 9.12037204 1.24863242 9.12037204 0.71875 7.0625 C0.32546774 5.61356534 -0.09882079 4.17266578 -0.5546875 2.7421875 C-0.77511719 1.87980469 -0.77511719 1.87980469 -1 1 C-0.67 0.67 -0.34 0.34 0 0 Z " fill="#EAFAF3" transform="translate(89,70)"/>
<path d="M0 0 C0.33 0.99 0.66 1.98 1 3 C0.01 3.66 -0.98 4.32 -2 5 C-3.01622658 6.99180409 -4.01712992 8.99152635 -5 11 C-5.99 11.495 -5.99 11.495 -7 12 C-7.41870553 14.33071879 -7.41870553 14.33071879 -7 17 C-4.08772497 20.26527806 -2.58864097 20.96140059 1.8125 21.25 C2.864375 21.1675 3.91625 21.085 5 21 C4.67 21.66 4.34 22.32 4 23 C-4.1627907 23.62790698 -4.1627907 23.62790698 -7.5 21.125 C-10.03594734 17.53240794 -10.65599676 15.4279781 -10 11 C-7.93198831 8.06708262 -5.5283341 5.53916208 -3 3 C-2.14341797 2.13955078 -2.14341797 2.13955078 -1.26953125 1.26171875 C-0.85058594 0.84535156 -0.43164062 0.42898437 0 0 Z " fill="#DFF9EC" transform="translate(41,106)"/>
<path d="M0 0 C4.29 0 8.58 0 13 0 C13 0.33 13 0.66 13 1 C9.04 1 5.08 1 1 1 C1.01160156 2.51207031 1.02320312 4.02414063 1.03515625 5.58203125 C1.10228075 18.4279831 0.84650107 31.18155529 0 44 C-0.33 44 -0.66 44 -1 44 C-1 39.38 -1 34.76 -1 30 C-1.66 30 -2.32 30 -3 30 C-3 28.02 -3 26.04 -3 24 C-2.34 24 -1.68 24 -1 24 C-0.67 16.08 -0.34 8.16 0 0 Z " fill="#398B61" transform="translate(117,61)"/>
<path d="M0 0 C2 4 2 4 2.578125 6.0078125 C4.8447262 9.18354495 8.2442616 9.38600015 11.875 10.125 C20.66694128 12.02808568 20.66694128 12.02808568 24 14 C17.52245225 16.18501013 8.02240423 13.85271779 2 11 C-0.67939643 7.71164984 -0.15692589 4.08007311 0 0 Z " fill="#B2CFBE" transform="translate(12,155)"/>
<path d="M0 0 C3.96 0 7.92 0 12 0 C12 1.98 12 3.96 12 6 C8.04 6 4.08 6 0 6 C0 4.02 0 2.04 0 0 Z " fill="#B4B6B4" transform="translate(118,111)"/>
<path d="M0 0 C3.96 0 7.92 0 12 0 C12 1.98 12 3.96 12 6 C8.04 6 4.08 6 0 6 C0 4.02 0 2.04 0 0 Z " fill="#B1B3B1" transform="translate(118,86)"/>
<path d="M0 0 C3.96 0 7.92 0 12 0 C12 1.98 12 3.96 12 6 C8.04 6 4.08 6 0 6 C0 4.02 0 2.04 0 0 Z " fill="#B7B9B7" transform="translate(118,62)"/>
<path d="M0 0 C3.96 0 7.92 0 12 0 C7.44758313 4.55241687 4.19391568 5.85081439 -2 7 C-5.625 6.6875 -5.625 6.6875 -8 6 C-5.60490662 3.10067643 -3.68754757 2.49831724 0 2 C0 1.34 0 0.68 0 0 Z " fill="#2F9761" transform="translate(85,17)"/>
<path d="M0 0 C0.33 0.66 0.66 1.32 1 2 C2.093125 1.773125 3.18625 1.54625 4.3125 1.3125 C8 1 8 1 9.9375 2.4375 C10.288125 2.953125 10.63875 3.46875 11 4 C10.67 4.99 10.34 5.98 10 7 C9.236875 6.484375 8.47375 5.96875 7.6875 5.4375 C1.6034718 3.06576019 -4.27667105 4.47444529 -10.5625 5.6875 C-11.366875 5.790625 -12.17125 5.89375 -13 6 C-13.66 5.34 -14.32 4.68 -15 4 C-14.34 4 -13.68 4 -13 4 C-13 3.34 -13 2.68 -13 2 C-8.71 1.34 -4.42 0.68 0 0 Z " fill="#E3F9F2" transform="translate(105,9)"/>
<path d="M0 0 C0.6875 1.6875 0.6875 1.6875 1 4 C-0.4375 6.75 -0.4375 6.75 -2 9 C-2.66 8.67 -3.32 8.34 -4 8 C-4.969375 8.185625 -5.93875 8.37125 -6.9375 8.5625 C-10 9 -10 9 -13 7 C-13.99 6.67 -14.98 6.34 -16 6 C-15.67 4.68 -15.34 3.36 -15 2 C-14.34 2.66 -13.68 3.32 -13 4 C-10.89250534 4.28082344 -10.89250534 4.28082344 -8.5625 4.1875 C-7.78003906 4.18105469 -6.99757813 4.17460937 -6.19140625 4.16796875 C-3.82200323 4.07555669 -3.82200323 4.07555669 -1 3 C-0.67 2.01 -0.34 1.02 0 0 Z " fill="#206D41" transform="translate(92,124)"/>
<path d="M0 0 C0.33 0 0.66 0 1 0 C1.36923077 5.41538462 1.36923077 5.41538462 -0.5 8.375 C-0.995 8.91125 -1.49 9.4475 -2 10 C-8.03748977 9.19500136 -14.01270113 8.11517502 -20 7 C-20 6.34 -20 5.68 -20 5 C-19.34 5.165 -18.68 5.33 -18 5.5 C-12.95408247 6.34098625 -6.83696924 6.84942942 -2 5 C-0.62533375 2.52363988 -0.62533375 2.52363988 0 0 Z " fill="#B5CEBE" transform="translate(116,178)"/>
<path d="M0 0 C1.65 0.99 3.3 1.98 5 3 C4.67 3.99 4.34 4.98 4 6 C7.21717892 7.07239297 8.05283612 6.93609485 11.1875 6.0625 C12.445625 5.711875 13.70375 5.36125 15 5 C15 5.66 15 6.32 15 7 C12.1668507 9.24985386 10.58644794 10.01196833 6.9375 9.9375 C3.53896155 8.85286007 2.08506164 7.88700843 0 5 C-0.25 2.25 -0.25 2.25 0 0 Z " fill="#1A6F42" transform="translate(32,126)"/>
<path d="M0 0 C0.77472656 0.18626953 1.54945312 0.37253906 2.34765625 0.56445312 C4.23270759 1.01826178 6.1164927 1.47732492 8 1.9375 C8 2.2675 8 2.5975 8 2.9375 C3.05 2.6075 -1.9 2.2775 -7 1.9375 C-7 1.2775 -7 0.6175 -7 -0.0625 C-7.61488281 -0.03929687 -8.22976562 -0.01609375 -8.86328125 0.0078125 C-10.07564453 0.03488281 -10.07564453 0.03488281 -11.3125 0.0625 C-12.11300781 0.08570313 -12.91351563 0.10890625 -13.73828125 0.1328125 C-16 -0.0625 -16 -0.0625 -19 -2.0625 C-13.87210318 -4.62644841 -5.38448995 -1.32045984 0 0 Z " fill="#A9D0BB" transform="translate(87,180.0625)"/>
<path d="M0 0 C2 1.5 2 1.5 3 3 C1.14375 2.6596875 1.14375 2.6596875 -0.75 2.3125 C-4.23271527 1.84535663 -4.23271527 1.84535663 -7.375 3.4375 C-7.91125 3.953125 -8.4475 4.46875 -9 5 C-9.66 5 -10.32 5 -11 5 C-10.67 7.64 -10.34 10.28 -10 13 C-10.99 13.495 -10.99 13.495 -12 14 C-13.56935594 10.86128812 -13.35201103 8.46144178 -13 5 C-9.27720113 -0.46786084 -6.17408962 -0.79665673 0 0 Z " fill="#D3F5E5" transform="translate(44,68)"/>
<path d="M0 0 C1.29047171 3.87141514 0.6542778 5.31547216 -1 9 C-5.21052632 13 -5.21052632 13 -8 13 C-7.19631101 7.77602153 -3.85808027 3.47227224 0 0 Z " fill="#166F3F" transform="translate(92,81)"/>
<path d="M0 0 C3.21524305 1.40844718 5.32183868 3.10344786 7.75 5.625 C8.67039062 6.57246094 8.67039062 6.57246094 9.609375 7.5390625 C10.29773438 8.26222656 10.29773438 8.26222656 11 9 C8 10 8 10 4.875 8.8125 C2 7 2 7 1.25 4.9375 C1.1675 4.298125 1.085 3.65875 1 3 C0.34 2.34 -0.32 1.68 -1 1 C-0.67 0.67 -0.34 0.34 0 0 Z " fill="#2C6E4A" transform="translate(61,112)"/>
<path d="M0 0 C0.99 0.33 1.98 0.66 3 1 C2.01 2.98 1.02 4.96 0 7 C0.66 7 1.32 7 2 7 C2 7.66 2 8.32 2 9 C2.66 9 3.32 9 4 9 C4.33 10.32 4.66 11.64 5 13 C-2.48291572 6.84965831 -2.48291572 6.84965831 -5 3 C-2.6875 1.4375 -2.6875 1.4375 0 0 Z " fill="#2D8653" transform="translate(85,100)"/>
<path d="M0 0 C3.96 0 7.92 0 12 0 C12.33 0.99 12.66 1.98 13 3 C8.71 3 4.42 3 0 3 C0 2.01 0 1.02 0 0 Z " fill="#4F4F4F" transform="translate(119,57)"/>
<path d="M0 0 C4.52615993 3.67832017 8.39424999 7.41086363 12 12 C10.02 11.34 8.04 10.68 6 10 C6 9.01 6 8.02 6 7 C5.401875 6.896875 4.80375 6.79375 4.1875 6.6875 C1.71756736 5.91123545 0.67748765 4.92911079 -1 3 C-0.67 2.01 -0.34 1.02 0 0 Z " fill="#E4FDF0" transform="translate(76,100)"/>
<path d="M0 0 C3.3 0 6.6 0 10 0 C6.36179756 1.81910122 3.43074581 2.73246827 -0.5 3.625 C-1.6240625 3.88539062 -2.748125 4.14578125 -3.90625 4.4140625 C-7 5 -7 5 -11 5 C-10.67 4.01 -10.34 3.02 -10 2 C-6.7 2 -3.4 2 0 2 C0 1.34 0 0.68 0 0 Z " fill="#E4FCF2" transform="translate(80,15)"/>
<path d="M0 0 C2.31 0.33 4.62 0.66 7 1 C7.33 1.99 7.66 2.98 8 4 C8.99 4.33 9.98 4.66 11 5 C8 7 8 7 5.3125 6.625 C4.549375 6.41875 3.78625 6.2125 3 6 C2.67 5.01 2.34 4.02 2 3 C1.34 2.67 0.68 2.34 0 2 C0 1.34 0 0.68 0 0 Z " fill="#BACDC2" transform="translate(37,169)"/>
<path d="M0 0 C1.32 0.66 2.64 1.32 4 2 C3.38640625 2.24492188 2.7728125 2.48984375 2.140625 2.7421875 C-0.42635567 4.25052285 -1.03857904 5.44256788 -2.25 8.125 C-2.58515625 8.84945312 -2.9203125 9.57390625 -3.265625 10.3203125 C-3.50796875 10.87460937 -3.7503125 11.42890625 -4 12 C-4.66 10.68 -5.32 9.36 -6 8 C-2.25 2.25 -2.25 2.25 0 0 Z " fill="#E0F7EB" transform="translate(16,31)"/>
<path d="M0 0 C2.82790258 2.29767085 3.91278296 3.38948075 4.4375 7.0625 C3.96865123 10.2104846 3.49619254 11.12785559 1 13 C0.67 12.34 0.34 11.68 0 11 C0.33 10.01 0.66 9.02 1 8 C0.40206327 5.64811553 -0.25881795 3.31074405 -1 1 C-0.67 0.67 -0.34 0.34 0 0 Z " fill="#DBF7E7" transform="translate(89,70)"/>
<path d="M0 0 C-1.50223584 4.20626034 -4.28550034 5.73900021 -8 8 C-8.66 7.67 -9.32 7.34 -10 7 C-7.45564849 2.16573213 -5.60644734 0 0 0 Z " fill="#4B9269" transform="translate(23,32)"/>
<path d="M0 0 C-4.85359495 4.01676824 -10.04972335 3.28136159 -16 3 C-13.37109503 1.60926232 -10.87877953 0.56030796 -8 -0.1875 C-7.34 -0.36667969 -6.68 -0.54585937 -6 -0.73046875 C-3.73459024 -1.03576811 -2.164908 -0.68136613 0 0 Z " fill="#549872" transform="translate(102,14)"/>
<path d="M0 0 C1.32 0 2.64 0 4 0 C4 0.66 4 1.32 4 2 C4.804375 2.12375 5.60875 2.2475 6.4375 2.375 C7.7059375 2.684375 7.7059375 2.684375 9 3 C9.33 3.66 9.66 4.32 10 5 C1.42857143 4.14285714 1.42857143 4.14285714 -2 2 C-1.34 1.34 -0.68 0.68 0 0 Z " fill="#D4D1D3" transform="translate(44,174)"/>
<path d="M0 0 C0.66 0.99 1.32 1.98 2 3 C-0.31 5.31 -2.62 7.62 -5 10 C-5.33 8.68 -5.66 7.36 -6 6 C-5.01 5.67 -4.02 5.34 -3 5 C-2.67 4.01 -2.34 3.02 -2 2 C-1.34 2 -0.68 2 0 2 C0 1.34 0 0.68 0 0 Z " fill="#288355" transform="translate(44,99)"/>
<path d="M0 0 C1.32 0.33 2.64 0.66 4 1 C3.71890887 2.64767247 3.42481474 4.29313145 3.125 5.9375 C2.96257812 6.85402344 2.80015625 7.77054687 2.6328125 8.71484375 C2.42398438 9.46894531 2.21515625 10.22304687 2 11 C1.01 11.495 1.01 11.495 0 12 C0 8.04 0 4.08 0 0 Z " fill="#DCDCDC" transform="translate(136,68)"/>
<path d="M0 0 C0.66 0.33 1.32 0.66 2 1 C1.67 1.66 1.34 2.32 1 3 C3.97 3.495 3.97 3.495 7 4 C7.33 4.99 7.66 5.98 8 7 C7.01 7.33 6.02 7.66 5 8 C4.62875 7.525625 4.2575 7.05125 3.875 6.5625 C1.37353038 4.47794198 -0.81593418 4.35378509 -4 4 C-2.68 3.67 -1.36 3.34 0 3 C0 2.01 0 1.02 0 0 Z " fill="#358B5C" transform="translate(86,64)"/>
<path d="M0 0 C-5.22531563 3.48354375 -10.8131337 4.30934332 -17 4 C-12.40180493 -0.40660361 -6.03986069 -0.18874565 0 0 Z " fill="#DDF5EB" transform="translate(69,20)"/>
<path d="M0 0 C0.33 0.99 0.66 1.98 1 3 C0 4 0 4 -2.06640625 4.09765625 C-2.89011719 4.08605469 -3.71382813 4.07445312 -4.5625 4.0625 C-5.38878906 4.05347656 -6.21507813 4.04445312 -7.06640625 4.03515625 C-7.70449219 4.02355469 -8.34257813 4.01195312 -9 4 C-9 3.34 -9 2.68 -9 2 C-6.03 1.34 -3.06 0.68 0 0 Z " fill="#11733D" transform="translate(88,131)"/>
<path d="M0 0 C0.66 0.33 1.32 0.66 2 1 C2 2.32 2 3.64 2 5 C1.34 5 0.68 5 0 5 C0 5.66 0 6.32 0 7 C-1.98 7.33 -3.96 7.66 -6 8 C-4.02 5.36 -2.04 2.72 0 0 Z " fill="#E9F7EC" transform="translate(48,98)"/>
<path d="M0 0 C0.99 0 1.98 0 3 0 C1.55746343 3.36591866 -0.33264727 5.51047079 -3 8 C-3.66 7.67 -4.32 7.34 -5 7 C-5 6.01 -5 5.02 -5 4 C-3.68 4 -2.36 4 -1 4 C-0.67 2.68 -0.34 1.36 0 0 Z " fill="#147040" transform="translate(52,123)"/>
<path d="M0 0 C2.9375 1.125 2.9375 1.125 6 3 C6.875 6.1875 6.875 6.1875 7 9 C5.82460004 8.07347299 4.65989423 7.13336613 3.5 6.1875 C2.52546875 5.40439453 2.52546875 5.40439453 1.53125 4.60546875 C0 3 0 3 0 0 Z " fill="#EAFCF4" transform="translate(41,88)"/>
<path d="M0 0 C0.66 0 1.32 0 2 0 C1.34 3.96 0.68 7.92 0 12 C-0.99 10.68 -1.98 9.36 -3 8 C-2.63671875 5.859375 -2.63671875 5.859375 -1.6875 3.75 C-1.38199219 3.04359375 -1.07648437 2.3371875 -0.76171875 1.609375 C-0.38466797 0.81273438 -0.38466797 0.81273438 0 0 Z " fill="#217B49" transform="translate(31,112)"/>
<path d="M0 0 C1.46179688 0.06960937 1.46179688 0.06960937 2.953125 0.140625 C4.43039063 0.19476562 4.43039063 0.19476562 5.9375 0.25 C6.68515625 0.29640625 7.4328125 0.3428125 8.203125 0.390625 C8.203125 0.720625 8.203125 1.050625 8.203125 1.390625 C0.778125 2.875625 0.778125 2.875625 -6.796875 4.390625 C-2.796875 0.390625 -2.796875 0.390625 0 0 Z " fill="#CFEFDF" transform="translate(28.796875,27.609375)"/>
<path d="M0 0 C-0.556875 0.268125 -1.11375 0.53625 -1.6875 0.8125 C-4.09305121 1.99530663 -4.09305121 1.99530663 -6.5625 3.6875 C-7.7690625 4.3371875 -7.7690625 4.3371875 -9 5 C-9.99 4.67 -10.98 4.34 -12 4 C-12 3.34 -12 2.68 -12 2 C-7.82262526 0.40861915 -4.46839215 -0.21278058 0 0 Z " fill="#217C4C" transform="translate(86,66)"/>
<path d="M0 0 C0.66 0.33 1.32 0.66 2 1 C-1.465 3.97 -1.465 3.97 -5 7 C-5.66 6.34 -6.32 5.68 -7 5 C-6.34 5 -5.68 5 -5 5 C-4.67 4.01 -4.34 3.02 -4 2 C-2.0625 0.75 -2.0625 0.75 0 0 Z " fill="#E7FAF3" transform="translate(57,114)"/>
<path d="M0 0 C1.33333333 2.66666667 2.66666667 5.33333333 4 8 C3.01 9.485 3.01 9.485 2 11 C-0.32590854 7.36576791 -0.16265833 4.22911669 0 0 Z " fill="#B8D5C7" transform="translate(12,155)"/>
<path d="M0 0 C0.33 0.99 0.66 1.98 1 3 C0.01 3.66 -0.98 4.32 -2 5 C-2.33 5.99 -2.66 6.98 -3 8 C-4.32 7.67 -5.64 7.34 -7 7 C-4.69 4.69 -2.38 2.38 0 0 Z " fill="#336F52" transform="translate(54,119)"/>
<path d="M0 0 C0.763125 0.66 1.52625 1.32 2.3125 2 C4.84277939 4.29850538 4.84277939 4.29850538 8 4 C8 4.66 8 5.32 8 6 C6.35 6.33 4.7 6.66 3 7 C0 3.375 0 3.375 0 0 Z " fill="#DDF9ED" transform="translate(56,80)"/>
<path d="M0 0 C1 3 1 3 0 6 C-1.65 6 -3.3 6 -5 6 C-3.35 4.02 -1.7 2.04 0 0 Z " fill="#286E47" transform="translate(92,81)"/>
<path d="M0 0 C1.1725131 0.95117134 2.33787015 1.91117009 3.5 2.875 C4.47453125 3.67550781 4.47453125 3.67550781 5.46875 4.4921875 C5.9740625 4.98976563 6.479375 5.48734375 7 6 C7 6.66 7 7.32 7 8 C3.2047869 6.50902342 1.38957269 4.24299151 -1 1 C-0.67 0.67 -0.34 0.34 0 0 Z " fill="#337E56" transform="translate(56,77)"/>
<path d="M0 0 C1.65 0 3.3 0 5 0 C5.33 1.32 5.66 2.64 6 4 C3.03 3.505 3.03 3.505 0 3 C0 2.01 0 1.02 0 0 Z " fill="#2D8A5B" transform="translate(82,177)"/>
<path d="M0 0 C0 0.66 0 1.32 0 2 C-2.3125 3.6875 -2.3125 3.6875 -5 5 C-5.99 4.67 -6.98 4.34 -8 4 C-8 3.34 -8 2.68 -8 2 C-2.25 0 -2.25 0 0 0 Z " fill="#10743D" transform="translate(47,131)"/>
<path d="M0 0 C1.485 0.99 1.485 0.99 3 2 C5.32387947 2.39387788 7.65793749 2.73486085 10 3 C10 3.33 10 3.66 10 4 C5.545 4.495 5.545 4.495 1 5 C0.67 3.35 0.34 1.7 0 0 Z " fill="#3E7D58" transform="translate(76,126)"/>
<path d="M0 0 C2.04119788 1.61594832 4.04072937 3.2856382 6 5 C6 5.66 6 6.32 6 7 C1.32307692 5.52307692 1.32307692 5.52307692 -0.3125 2.875 C-0.539375 2.25625 -0.76625 1.6375 -1 1 C-0.67 0.67 -0.34 0.34 0 0 Z " fill="#156A3B" transform="translate(41,94)"/>
<path d="M0 0 C3.08236365 2.78407039 3.95206337 3.80825346 5 8 C2.69 6.02 0.38 4.04 -2 2 C-1.34 1.34 -0.68 0.68 0 0 Z " fill="#E9FCF4" transform="translate(35,81)"/>
<path d="M0 0 C1.53445094 3.06890187 0.54984289 5.70094266 0 9 C-0.99 8.67 -1.98 8.34 -3 8 C-1.125 1.125 -1.125 1.125 0 0 Z " fill="#1C7B46" transform="translate(31,71)"/>
</svg>
